<svg version="1.1" x="0px" y="0px" width="572" height="283" xmlns="http://www.w3.org/2000/svg" xmlns:xlink="http://www.w3.org/1999/xlink" xmlns:a="http://ns.adobe.com/AdobeSVGViewerExtensions/3.0/" xml:space="preserve"><g transform="translate(194.875 20.625) scale(2.0826234933633 2.0826238102392) rotate(0 41.412231445312 39.613494873047)"><path fill-rule="evenodd" clip-rule="evenodd" d="M56.966 16.616c-.061.008-.129.011-.176.044-.158.113-.309.237-.46.361-.017.012-.034.048-.027.063.017.029.044.063.073.073.044.015.095.015.109.019.145.003.26 0 .359-.048.226-.109.463-.139.707-.176.244-.032.484-.062.731-.062.06 0 .122 0 .183-.012.172-.036.346-.116.348-.361a.516.516 0 0 1 .139-.329c.084-.105.074-.157-.025-.252-.134-.128-.273-.248-.41-.369a1.009 1.009 0 0 1-.303-.449c-.069-.208-.174-.405-.258-.61-.057-.139-.128-.259-.298-.288-.114-.022-.159-.106-.163-.216-.007-.12-.007-.245-.012-.365-.004-.088-.021-.176-.084-.237a4.887 4.887 0 0 0-.274-.245c-.059-.048-.147-.021-.185.055a.719.719 0 0 0-.063.168c-.036.168-.047.344-.098.505-.088.281-.022.471.259.588.147.062.212.193.225.354.031.351.004.449-.315.621-.172.091-.224.204-.216.38.003.059.001.12.005.183.006.12.046.212.184.233.06.008.118.029.175.056.108.047.116.146.027.233a.269.269 0 0 1-.157.083zm-3.431-1.187h.46c.103-.004.197-.029.256-.12.08-.125.203-.157.338-.187a.952.952 0 0 0 .499-.292c.103-.117.059-.278-.091-.314a1.026 1.026 0 0 0-.438-.022c-.199.033-.406.015-.563-.105-.244-.187-.445-.139-.655.036-.036.033-.083.055-.12.084a.977.977 0 0 1-.677.23c-.241-.007-.319.069-.395.3-.029.08 0 .149.083.168.129.033.273.036.391.091.289.139.591.141.912.131zm8.343 6.339c.104-.208.025-.438-.191-.515a1.505 1.505 0 0 1-.473-.26c-.182.22-.377.563-.41.786-.067.449-.115.902-.088 1.355a.627.627 0 0 0 .072.244c.051.109.175.143.283.088a.58.58 0 0 0 .326-.46c.012-.084.016-.172.008-.256-.031-.304.055-.556.294-.753a.723.723 0 0 0 .179-.229zm18.217 3.117c3.518-8.692 3.776-15.919-.055-19.8-8.08-8.18-31.281 1.634-51.823 21.922-1.322 1.305-2.556 2.631-3.787 3.953-1.034 1.202-1.337 1.86 3.834-2.601.097-.084.168-.128.261-.205.171-.149.325-.3.499-.449C39.521 18.771 50.33 12.333 59.106 9.267c.107.069.219.132.326.202.531.354 1.045.734 1.564 1.104.061.04.119.084.176.132.072.062.072.131 0 .183-.061.044-.126.076-.188.12a.28.28 0 0 0-.129.249c.012.548.096 1.073.424 1.534a.593.593 0 0 0 .614.245c.229-.037.452-.106.678-.165.143-.036.283-.076.426-.113.181-.047.313.033.403.183a.934.934 0 0 1 .102.234c.06.212.131.42.149.643.025.278.218.428.454.526.113.048.22.019.318-.036.13-.07.258-.146.386-.216.084-.048.168-.04.237.029.265.271.529.544.791.818a.082.082 0 0 1-.053.139c-.061.004-.125.011-.184-.004a.858.858 0 0 0-.668.128c-.221.146-.437.153-.658.025a1.364 1.364 0 0 0-.993-.153.717.717 0 0 1-.329-.004.679.679 0 0 0-.625.125.604.604 0 0 1-.449.12c-.441-.029-.787.168-1.052.497-.181.227-.39.402-.638.544-.404.23-.81.465-1.209.702a4.341 4.341 0 0 0-.422.292c-.283.227-.585.395-.959.424-.244.022-.484.08-.727.124a.698.698 0 0 0-.175.048c-.113.044-.149.161-.095.274a.54.54 0 0 0 .299.259c.138.052.278.099.414.153.137.055.223.161.223.311 0 .388.127.774.032 1.17-.021.08.004.171.007.255.01.187-.085.304-.271.311a.643.643 0 0 1-.216-.032c-.095-.025-.187-.063-.277-.096a.77.77 0 0 0-.505-.032 1.182 1.182 0 0 1-.619-.004c-.219-.051-.439-.033-.659-.015a.777.777 0 0 0-.513.26.35.35 0 0 0-.104.229c-.007.096.027.161.12.197.26.11.503.256.791.289.157.019.227.124.23.281 0 .025.006.051-.004.073-.063.197-.08.401-.113.606-.027.168-.102.325-.063.504.022.092-.046.161-.115.216-.086.065-.181.124-.267.193a.31.31 0 0 0-.121.293c.023.175.1.328.209.464.047.062.118.084.195.088.122.003.244.003.367.003.244.004.489-.007.732.052.187.04.363.003.529-.096.17-.099.342-.193.518-.281a.884.884 0 0 0 .418-.445c.109-.245.234-.486.331-.738.08-.201.19-.365.361-.497.117-.091.216-.201.325-.299.168-.15.305-.329.379-.537.089-.26.27-.424.479-.585.151-.113.309-.183.498-.212.119-.019.219-.021.302.069.136.157.309.172.501.172.29.004.539-.069.787-.245.498-.351.458-.317.852.066.211.208.447.38.715.511.178.084.344.187.505.3.317.227.619.479.999.61a.41.41 0 0 1 .269.285.74.74 0 0 0 .083.2c.154.238.191.497.15.771a.327.327 0 0 0 .006.143c.023.076.082.12.163.128.082.003.147-.029.171-.109a.784.784 0 0 0 .026-.216c.003-.208.001-.42.003-.629 0-.084 0-.172.01-.256.015-.113.119-.171.215-.12.064.033.123.08.186.12a.333.333 0 0 0 .281.044.128.128 0 0 0 .076-.065c.025-.051-.011-.099-.051-.124a.393.393 0 0 0-.137-.048c-.381-.076-.721-.248-1.038-.46-.747-.501-.64-.337-1.173-1.225-.082-.139-.153-.273-.303-.361-.113-.065-.063-.277.065-.325.166-.065.365-.029.462.117.107.16.26.252.426.336.373.187.745.373 1.144.5.187.063.356.154.506.289.115.106.267.172.405.252.274.157.398.377.328.665-.045.19.023.318.084.482.116.311.293.453.63.431.231-.018.283.197.354.366.016.036-.006.072-.051.072-.108 0-.152.063-.169.157-.036.209-.028.417.013.621a.216.216 0 0 0 .17.176c.071.015.143.033.216.047a.414.414 0 0 0 .453-.171 1.34 1.34 0 0 0 .166-.281.566.566 0 0 0-.055-.563c-.086-.12-.173-.237-.257-.357a.315.315 0 0 1-.026-.348c.052-.099.101-.197.155-.292.099-.179.239-.274.453-.241a.267.267 0 0 0 .109.004c.329-.048.65-.063.957.113.094.055.215.04.326.021.06-.011.118-.029.18-.032.052-.004.094.025.117.072.023.048.023.099-.012.136-.134.146-.254.296-.476.317-.153.019-.187.103-.126.234.047.099.105.193.16.288.103.183.213.358.281.56.004.011.01.021.016.032.188.413.328.508.779.541.014.004.025.004.037.004.361.004.374-.063.564.384.292.687.57 1.385.818 2.09.033.091.063.187.088.281.016.065-.01.12-.077.146-.237.087-.47.112-.703-.033-.302-.193-.644-.304-.976-.428a.661.661 0 0 0-.396-.029c-.143.033-.293.037-.436.069-.381.088-.727-.029-1.066-.179a3.241 3.241 0 0 1-.294-.149c-.382-.224-.802-.205-1.218-.201-.094 0-.161.059-.205.135a.588.588 0 0 0-.068.461c.039.143.09.296-.018.424-.139.16-.311.277-.533.292a1.12 1.12 0 0 1-.295-.015 33.887 33.887 0 0 1-1.249-.304c-.117-.032-.227-.095-.335-.149-.121-.065-.223-.149-.242-.303-.015-.125-.099-.194-.207-.238-.263-.102-.523-.212-.793-.296a2.587 2.587 0 0 1-.624-.307c-.12-.077-.203-.176-.216-.321-.016-.172-.047-.34-.053-.512a1.393 1.393 0 0 0-.094-.501c-.053-.139-.082-.284-.129-.424-.059-.175-.157-.237-.334-.204a6.462 6.462 0 0 0-.536.135c-.442.128-.888.18-1.345.088-.105-.021-.219-.019-.33-.019-.442-.003-.883.008-1.324-.003a.876.876 0 0 0-.637.223c-.246.219-.527.401-.785.606-.184.146-.376.223-.613.157-.106-.025-.22-.025-.329-.029a1.744 1.744 0 0 1-.468-.088 4.176 4.176 0 0 0-.537-.12c-.105-.022-.197.015-.246.116-.117.253-.322.428-.528.604-.365.307-.694.657-1.102.917-.155.095-.197.233-.167.413.117.643.004.577-.305.895-.137.139-.265.293-.491.285-.077-.004-.136.059-.183.117a4.863 4.863 0 0 0-.201.259 3.08 3.08 0 0 1-.422.512c-.078.073-.15.161-.208.252a3.329 3.329 0 0 1-.369.461c-.237.252-.382.566-.568.854-.021.029-.04.073-.034.103.055.274-.127.435-.283.603a2.267 2.267 0 0 0-.451.669 1.37 1.37 0 0 0-.094.277c-.038.18-.063.362-.093.541a.473.473 0 0 0 .103.413c.288.332.271.716.184 1.11-.023.106-.07.208-.12.307a2.65 2.65 0 0 0-.271 1.422c.021.263.094.468.266.661.275.311.539.636.84.924.073.07.13.146.162.241.024.069.053.136.072.209.17.628.461 1.213.697 1.819.145.369.409.665.694.938.062.059.157.113.171.183.039.168.16.205.291.238.287.069.574.135.859.204a.834.834 0 0 0 .609-.051c.185-.096.38-.176.549-.296.189-.139.393-.197.617-.201.378-.008.76-.063 1.133.055a.68.68 0 0 0 .365-.019c.189-.051.378-.102.566-.157a.65.65 0 0 0 .377-.263c.156-.216.423-.277.67-.354.034-.011.072-.004.107-.015.46-.153.863-.025 1.25.234.246.168.469.357.672.573.204.216.445.38.734.468.119.036.235.073.359.029.109-.04.183.011.258.088.21.219.321.489.4.778a.334.334 0 0 1-.057.311c-.143.183-.15.387-.115.595.064.388.131.774.217 1.155.033.143.117.27.18.401.095.201.203.395.143.632-.022.088.016.172.067.241.063.092.132.18.204.26.106.12.218.233.327.351.203.22.349.464.373.778.022.296.124.57.257.837.189.376.26.793.342 1.198.031.157.048.314.07.475.039.285.012.56-.127.822-.068.128-.127.263-.188.398a.775.775 0 0 1-.174.277c-.15.143-.221.321-.265.516a1.105 1.105 0 0 1-.035.146c-.142.438-.181.885-.027 1.334.022.61.276 1.129.606 1.63.322.481.533 1.019.694 1.578.202.705.39 1.418.51 2.145.084.497.292.961.568 1.389.101.153.21.3.378.391.246.136.271.391.327.629.009.04-.019.095-.044.135-.055.08-.113.161-.181.233-.353.392-.707.782-1.067 1.166a33.456 33.456 0 0 1-3.452 3.197 34.787 34.787 0 0 1-4.175 2.886 34.444 34.444 0 0 1-12.075 4.359 32.54 32.54 0 0 1-2.042.259 33.99 33.99 0 0 1-2.386.153c-.404.008-.808.063-1.211.044-.844-.044-1.69-.051-2.534-.116a36.611 36.611 0 0 1-1.904-.187c-.091-.011-.181-.033-.272-.044a88.248 88.248 0 0 1-4.715 2.795c3.071.785 6.248 1.235 9.488 1.217 10.328.065 20.151-4.198 27.197-11.231a38.58 38.58 0 0 0 11.307-26.975 38.496 38.496 0 0 0-11.248-27.472 38.365 38.365 0 0 0-3.855-3.358c5.754-1.316 10.229-.793 12.535 1.915 1.819 2.138 2.071 5.396 1.01 9.36.921 1.427 1.97 3.324 2.941 5.663z" fill="#e4d519"></path><path fill-rule="evenodd" clip-rule="evenodd" d="M35.757 9.266c.038-.161-.046-.256-.17-.329a1.886 1.886 0 0 1-.464-.413.589.589 0 0 1-.151-.405c0-.095-.004-.194-.004-.293 0-.142-.077-.226-.201-.277-.035-.011-.069-.029-.104-.036-.347-.063-.588-.285-.804-.545-.038-.047-.084-.091-.113-.143-.082-.149-.213-.189-.371-.193a1.574 1.574 0 0 0-.398.051.77.77 0 0 1-.742-.215c-.08-.077-.153-.161-.233-.234a.315.315 0 0 0-.305-.084c-.154.037-.313.063-.464.109-.353.106-.678.11-.94-.197-.015-.018-.037-.032-.059-.047-.279-.168-.583-.15-.773.059a1.601 1.601 0 0 1-.376.292c-.195.112-.331.276-.475.444-.187.22-.106.38.089.52.082.058.177.08.278.08.208 0 .417.004.625.004.161-.004.32 0 .47.062a.75.75 0 0 0 .672-.04.93.93 0 0 1 .487-.103c.207-.032.404.048.6.165.215.131.385.3.524.508.197.292.464.497.784.64a.624.624 0 0 1 .185.116.241.241 0 0 1-.104.409.995.995 0 0 1-.254.033 4.754 4.754 0 0 1-.696-.022c-.314-.041-.543.098-.709.357-.073.117-.086.23-.024.348.135.259.322.493.406.777.005.022.027.041.044.059.327.352.721.581 1.208.633a.461.461 0 0 0 .25-.044c.153-.066.177-.157.068-.278-.075-.084-.155-.157-.229-.241-.042-.047-.069-.105-.027-.164.04-.059.106-.063.166-.044.106.029.208.069.316.099.429.117.678-.12.563-.544a1.437 1.437 0 0 1-.066-.472c.011-.183.139-.281.323-.263.113.011.21.069.302.128.192.116.393.113.603.069.185-.038.254-.168.293-.336zM21.065 32.55c-.241-.307-.563-.504-.888-.701-.132-.077-.263-.132-.415-.113-.175.018-.338-.037-.504-.073-.298-.066-.601-.109-.902-.161l-.002.015c-.049 0-.101-.011-.146 0-.28.066-.517.22-.748.377-.071.047-.047.175.029.219a.685.685 0 0 0 .314.092c.159.011.318.014.475-.029a.921.921 0 0 1 .674.08c.316.164.641.307.964.453.325.143.654.277.979.416.19.084.38.081.574.029.08-.021.126-.146.073-.215a.492.492 0 0 0-.135-.117 1.291 1.291 0 0 1-.342-.272zm13.934-14.721a.466.466 0 0 1-.325-.365c-.024-.105-.04-.216-.057-.325-.009-.059-.007-.12-.015-.183-.016-.106-.106-.149-.181-.077a2.05 2.05 0 0 0-.245.274c-.243.329-.519.617-.904.785a.841.841 0 0 0-.292.22c-.089.113-.055.237.077.3a.64.64 0 0 0 .396.04c.131-.022.265-.048.334-.059a.865.865 0 0 1 .489.084c.103.044.205.092.311.109a.66.66 0 0 0 .718-.387c.057-.143.051-.329-.168-.365-.047-.007-.091-.032-.138-.051zm-8.742 16.083c-.473-.113-.928-.311-1.431-.273-.023 0-.047-.011-.071-.015-.36-.048-.404-.008-.391.354.007.227-.071.34-.289.401-.106.029-.216.048-.322.077-.058.015-.115.04-.17.065-.018.011-.035.04-.033.059 0 .019.022.048.038.048a.817.817 0 0 0 .183.018c.424-.032.853.033 1.277-.055.069-.015.146-.003.229-.003a.557.557 0 0 0 .387-.033c.217-.121.453-.183.69-.245.045-.011.089-.036.133-.059.057-.029.066-.099.025-.153a.413.413 0 0 0-.255-.186zM54.56 53.068c-.096.08-.168.124-.261.205-.173.146-.325.299-.501.445-8.23 7.008-16.654 12.478-24.139 15.993a1.14 1.14 0 0 0-.018-.381c-.115-.516-.243-1.027-.517-1.487-.044-.073-.079-.153-.115-.23a.88.88 0 0 1 .027-.814c.135-.245.272-.493.404-.741.057-.11.104-.224.155-.337a.542.542 0 0 0 .033-.354c-.057-.252-.035-.273.203-.397l.131-.066a1.45 1.45 0 0 0 .766-.982c.025-.109.04-.22.062-.325a.856.856 0 0 0-.214-.786 1.235 1.235 0 0 1-.091-.112c-.053-.07-.051-.146.015-.198.267-.197.537-.387.81-.577.085-.058.19-.047.287-.036.217.019.376-.073.506-.241.387-.508.784-1.009 1.102-1.563.272-.476.393-1.001.504-1.531.011-.059.017-.12.025-.183a.562.562 0 0 1 .331-.449 6.2 6.2 0 0 0 .807-.508c.199-.139.384-.311.486-.541.073-.164.21-.23.369-.273.296-.077.596-.15.888-.238a1.98 1.98 0 0 0 .402-.179c.258-.149.477-.347.636-.603.126-.197.267-.38.422-.556a1.85 1.85 0 0 0 .309-.497c.071-.164.103-.329.031-.5-.084-.197-.046-.38.053-.563.053-.095.108-.197.135-.299.082-.314.229-.596.391-.873.237-.402.417-.834.583-1.269.111-.285.208-.573.389-.829a1.1 1.1 0 0 0 .15-.373c.102-.405.199-.811.283-1.216.064-.304.02-.614.02-.921 0-.128-.068-.234-.143-.333a20.192 20.192 0 0 0-.404-.522c-.177-.219-.362-.435-.537-.653a.875.875 0 0 0-.517-.325c-.848-.197-1.669-.49-2.506-.734a6.126 6.126 0 0 1-1.191-.482.55.55 0 0 0-.524-.025c-.259.113-.526.204-.789.307a2.898 2.898 0 0 0-.239.095c-.515.237-.979.121-1.412-.208-.238-.176-.28-.384-.123-.636.145-.227.292-.453.444-.676.133-.201.205-.417.21-.658.003-.157.027-.317.047-.475.053-.442-.083-.698-.499-.873a20.247 20.247 0 0 0-1.905-.68c-.059-.019-.117-.04-.175-.052-.257-.055-.427-.204-.57-.424-.378-.577-.391-.577-1.036-.818-.252-.091-.504-.189-.76-.277a1.081 1.081 0 0 1-.438-.26 1.819 1.819 0 0 0-.484-.332c-.3-.139-.599-.277-.903-.413a.896.896 0 0 0-.245-.073c-.318-.032-.636-.055-.952-.084-.185-.018-.365-.04-.548-.062-.106-.011-.181-.055-.221-.161-.099-.252-.311-.307-.542-.277-.32.036-.572.208-.78.449-.066.076-.079.176-.101.271-.097.413-.241.468-.583.223a1.688 1.688 0 0 1-.345-.325c-.084-.105-.135-.117-.25-.036a1.47 1.47 0 0 1-.429.208.683.683 0 0 0-.438.311.605.605 0 0 1-.119.139.218.218 0 0 1-.272.029c-.073-.044-.141-.099-.21-.146-.111-.076-.221-.156-.334-.229a.534.534 0 0 0-.458-.066c-.259.073-.528.11-.778.22a.314.314 0 0 1-.313-.033 6.855 6.855 0 0 1-1.05-.921c-.119-.128-.13-.284-.099-.449.058-.303.027-.61.02-.917-.009-.296-.137-.541-.302-.774a.362.362 0 0 0-.309-.172 6.323 6.323 0 0 0-.477.004c-.386.019-.72-.121-1.032-.329-.106-.069-.115-.168-.013-.241.283-.208.373-.5.418-.825a4.43 4.43 0 0 0 .044-.698c-.003-.216.024-.413.179-.577.033-.037.049-.084.066-.132a.104.104 0 0 0-.044-.128.971.971 0 0 0-.598-.143.392.392 0 0 0-.298.197c-.191.322-.5.537-.738.818a.417.417 0 0 1-.215.132 9.868 9.868 0 0 1-1.301.23c-.188.021-.292-.063-.373-.227-.296-.596-.511-1.221-.701-1.856a1.952 1.952 0 0 0-.157-.409c-.17-.3-.143-.588.077-.854.227-.274.451-.552.581-.888.04-.11.133-.176.23-.23.245-.139.488-.285.74-.409.155-.073.309-.146.445-.252a.912.912 0 0 1 .728-.197c.292.055.586-.004.878.04.141.019.267-.048.371-.136.171-.149.376-.229.586-.299.301-.103.597-.121.89.036.153.084.323.113.499.117.183.003.367 0 .552 0 .15 0 .292-.025.4-.128.119.033.123.131.145.208.089.296.212.577.311.866.095.277.254.5.464.694.161.149.349.273.455.475.029.051.122.033.153-.021.057-.113.079-.23.101-.354.119-.64.215-1.279.203-1.934 0-.051.005-.098.003-.149-.011-.259.088-.472.256-.669.407-.471.802-.957 1.208-1.436.086-.103.185-.197.289-.281.614-.508 1.082-1.133 1.478-1.819.119-.201.237-.402.347-.606a.89.89 0 0 1 .524-.432l.908-.299c.13-.044.258-.084.385-.128.325-.113.581-.314.751-.618.126-.227.276-.427.508-.566.091-.055.163-.146.234-.229.285-.34.647-.57 1.069-.684.354-.099.71-.193 1.06-.307.166-.052.234-.019.283.139.075.233.133.468.053.72-.047.146.013.201.167.193.235-.018.46-.076.67-.186.219-.113.405-.274.594-.432a.558.558 0 0 0 .179-.314c.035-.143.068-.288.083-.435.015-.161.035-.314.099-.464.084-.193.018-.361-.13-.497-.089-.08-.192-.149-.291-.227a.539.539 0 0 0-.486-.099 4.637 4.637 0 0 1-.431.088 2.206 2.206 0 0 1-.292.021c-.064 0-.126-.021-.149-.087-.019-.052.013-.096.047-.132.06-.059.121-.124.19-.172.21-.149.426-.292.639-.435a.62.62 0 0 1 .386-.095c.517.028 1.028-.033 1.542-.07.307-.018.608-.076.904-.16.168-.044.325-.117.451-.237.163-.157.358-.26.566-.337.298-.113.594-.229.899-.321.221-.065.329-.197.354-.413.011-.087.035-.171.039-.255.007-.271-.099-.476-.364-.578-.102-.04-.208-.076-.311-.113a.716.716 0 0 1-.437-.424c-.084-.204-.167-.409-.259-.606-.196-.424-.402-.844-.594-1.268a.756.756 0 0 0-.446-.409c-.309-.12-.618-.241-.959-.219a.946.946 0 0 1-.497-.117c-.358-.187-.749-.307-1.089-.53-.062-.04-.115-.025-.168.015-.391.3-.802.566-1.242.786a.702.702 0 0 0-.227.187c-.163.183-.327.365-.493.544a3.1 3.1 0 0 0-.586.841c-.148.325-.369.606-.548.913a1.246 1.246 0 0 1-.331.344c-.515.397-1.003.829-1.479 1.271-.064.058-.126.116-.197.164-.225.16-.492.099-.627-.143a.826.826 0 0 1-.095-.354c-.019-.395-.119-.774-.216-1.154-.016-.069-.027-.153-.073-.205-.225-.244-.47-.479-.83-.485a6.818 6.818 0 0 1-.806-.073.443.443 0 0 1-.358-.274c-.185-.401-.212-.829-.216-1.26a.68.68 0 0 1 .059-.249c.086-.201.181-.401.274-.599a.449.449 0 0 1 .3-.249 8.287 8.287 0 0 1 1.651-.351c.453-.044.857-.19 1.184-.522.177-.183.398-.277.654-.307a5.469 5.469 0 0 0 1.491-.38c.159-.066.329-.096.495-.14.272-.072.546-.139.818-.215a.617.617 0 0 0 .413-.392c.139-.354.252-.716.371-1.077.031-.099-.047-.18-.145-.15-.422.132-.846.252-1.242.453-.19.099-.338.245-.471.405-.258.322-.411.234-.64.026-.151-.143-.289-.3-.431-.453-.262-.274-.53-.545-.778-.833a.806.806 0 0 0-.437-.281c.415-.183.829-.365 1.242-.552.115-.052.212-.059.283.069.051.088.139.088.226.076.115-.015.201-.087.298-.139.249-.128.48-.3.788-.259.117.015.188-.052.192-.128.007-.106-.057-.154-.152-.172-.024-.004-.045-.015-.108-.037.581-.233 1.118-.508 1.747-.321.104.033.219.022.331.022.318.003.638 0 .956 0 .148 0 .292.015.438.047.313.073.636.025.952.048.145.011.318-.201.318-.351 0-.055-.037-.092-.081-.113-.091-.048-.191-.037-.289-.037-.466 0-.934.004-1.399.004-.122 0-.245-.007-.367-.019a.114.114 0 0 1-.084-.059c-.016-.036.021-.069.055-.076.285-.077.568-.153.853-.227a.602.602 0 0 1 .291.019c.206.04.417.047.621-.012.254-.069.482.019.714.092.045.015.084.051.129.073.236.105.576.062.74-.143.172-.212.396-.318.642-.405.241-.084.484-.165.716-.281.217-.11.458-.157.705-.19a31.568 31.568 0 0 1 2.125-.19c.623-.043 1.251-.025 1.876-.032l.073.003c.051.012.1.026.102.084.002.056-.042.092-.089.106-.093.029-.188.065-.283.073-.479.04-.956.033-1.431-.037-.17-.025-.338-.058-.508-.087-.462-.077-.875.372-.756.821.021.081.075.125.154.14.148.025.292.003.438-.015.413-.059.826-.128 1.244-.121.086 0 .172 0 .256.011.099.008.159.063.168.165.013.183.066.357.126.533.069.201.19.34.4.395.095.021.185.065.279.088.32.08.576.271.824.471.208.169.225.358.062.578-.029.04-.066.072-.097.113-.077.091-.11.197-.064.307.117.281-.022.489-.216.643a1.361 1.361 0 0 0-.375.438c-.022.044-.047.096-.086.121a.448.448 0 0 0-.201.504c.022.103-.039.19-.121.252-.039.033-.077.066-.121.084-.3.117-.396.373-.48.654-.111.38-.124.745.02 1.118.132.336.373.555.731.596a3.878 3.878 0 0 0 1.563-.125c.172-.051.318-.131.402-.299.097-.19.263-.281.462-.329.072-.019.142-.044.215-.052a.463.463 0 0 0 .34-.189c.306-.388.69-.701.954-1.122.072-.113.117-.12.23-.025.111.095.229.084.346.069.428-.055.85-.131 1.25-.296.159-.065.313-.143.488-.164a.546.546 0 0 0 .261-.124c.11-.081.224-.153.323-.245.134-.113.283-.19.453-.233a18.356 18.356 0 0 0 1.557-.438.821.821 0 0 1 .327-.037c.146.011.294 0 .44.008l.441-.885c-.014-.087.012-.175.104-.256.022-.018.034-.044.057-.065l.187-.373c.006-.076.063-.127.121-.175a3.897 3.897 0 0 1 1.129-.61c.051-.019.1 0 .149 0a70.762 70.762 0 0 1 4.411-2.182C51.403 1.285 45.963.021 40.382 0 18.946-.073 1.791 17.277 1.721 38.341a38.597 38.597 0 0 0 11.275 27.38 38.334 38.334 0 0 0 9.406 6.876c-7.285 2.314-13.015 2.158-15.731-1.033-1.819-2.138-2.073-5.396-1.01-9.361a36.835 36.835 0 0 1-2.932-5.66c-3.517 8.688-3.778 15.919.053 19.799 8.082 8.181 31.284-1.633 51.825-21.922 1.321-1.308 2.556-2.63 3.785-3.956 1.035-1.202 1.337-1.86-3.832 2.604zM24.505 7.438c.159-.08.311-.183.541-.23a1.374 1.374 0 0 1-.349.512c-.26.227-.514.453-.722.73a.448.448 0 0 1-.276.168c-.208.04-.93.019-1.193-.044.244-.208.94-.606 1.999-1.136zM26.507 70.5a38.271 38.271 0 0 1-2.132-1.001 34.913 34.913 0 0 1-2.497-1.414 36.167 36.167 0 0 1-4.048-2.934 34.33 34.33 0 0 1-2.196-2.014 34.725 34.725 0 0 1-5.53-7.183 34.936 34.936 0 0 1-2.687-5.799 34.44 34.44 0 0 1-1.328-4.818 38.194 38.194 0 0 1-.42-2.649c-.234-1.819-.256-3.646-.221-5.473.02-.946.111-1.886.213-2.821.119-1.074.303-2.137.526-3.193.015-.069.035-.143.064-.208.015-.033.062-.044.093-.021a.457.457 0 0 1 .11.095c.272.347.542.698.818 1.041.086.109.11.212.033.336a1.424 1.424 0 0 0-.175.442c-.067.325.029.516.325.658.057.025.111.051.172.069.373.102.689.314 1.001.53.252.176.512.34.769.504.123.081.261.14.338.278.051.091.152.12.245.149.208.069.42.132.632.197l1.688.516c.059.018.119.032.177.051.106.029.212.065.325.044.13-.025.152-.146.212-.233.033-.048.103-.048.117.003.035.103.075.209.089.314a.68.68 0 0 0 .323.512c.031.019.06.04.091.062.944.6 1.805 1.313 2.709 1.966.318.23.634.461.952.694.159.117.331.205.522.264.363.105.727.219 1.089.336a.706.706 0 0 0 .467-.004.997.997 0 0 1 .36-.069c.148.004.261.059.329.189.163.322.227.65.062.99-.135.278-.271.552-.411.822-.197.384-.407.757-.595 1.144-.168.344-.38.654-.623.95-.428.512-.387.398-.391 1.093 0 .223.018.441.141.639.066.106.064.234.066.354 0 .249-.051.489-.115.728a.599.599 0 0 0 .139.609c.031.037.057.081.09.117.223.267.398.552.479.899.053.227.157.438.276.639.051.084.097.172.137.264.23.519.521.997.924 1.402.173.176.314.38.417.604.101.215.243.397.413.559.123.121.25.237.322.398a.493.493 0 0 0 .23.23c.194.105.382.233.599.273a.519.519 0 0 1 .305.187c.278.311.557.621.872.898a.783.783 0 0 1 .195.308c.079.193.15.387.217.584.123.348.238.698.366 1.042.065.175.102.351.1.537v1.582c0 .171.011.343.037.515.051.317.042.629-.059.942-.073.23-.102.482-.117.724-.02.354-.015.713-.011 1.067.002.109.028.219.061.324.179.578.23 1.177.313 1.772.055.413.062.829.069 1.246.005.482-.059.953-.123 1.429-.071.522.083.993.294 1.457.035.073.102.136.162.197.411.421.819.848 1.293 1.199.192.146.298.321.28.563-.031.428.057.829.23 1.217.013.032.009.069.013.099-.082.054-.149.006-.212-.019z" fill="#080906"></path></g>
<g transform="translate(75.375 220.71590880838)  scale(0.54519737688055 0.54519737688055)"><text dominant-baseline="auto" alignment-baseline="auto" font-family="Orborn" font-size="62px" fill="#080906" letter-spacing="0" xml:space="preserve">ONTHEGOSOLUTIONSLP</text></g>
<g transform="translate(236.484375 255.54567232543)  scale(0.92870544090056 0.92870544090056)"><text dominant-baseline="auto" alignment-baseline="auto" font-family="Rodina" font-size="34px" fill="#696e6f" letter-spacing="0" xml:space="preserve">ADVICES</text></g>
<g transform="translate(467.58825231481 223.75462962963)  scale(0.59259259259259 0.59259259259259)"><text dominant-baseline="auto" alignment-baseline="auto" font-family="Orborn" font-size="34px" fill="#161617" letter-spacing="0" xml:space="preserve">INC</text></g>
<g transform="translate(20.875 226.46875) scale(1.0004714677919 1.0004736140659) rotate(0 265 3.3451106548309)"><path d="M0,6.69h530C530,6.69,263.079-8.363,0,6.69z" fill="#e4d519"></path></g>
</svg>