<?xml version="1.0" standalone="no"?>
<!DOCTYPE svg PUBLIC "-//W3C//DTD SVG 20010904//EN"
 "http://www.w3.org/TR/2001/REC-SVG-20010904/DTD/svg10.dtd">
<svg version="1.0" xmlns="http://www.w3.org/2000/svg"
 width="14042.000000pt" height="4417.000000pt" viewBox="0 0 14042.000000 4417.000000"
 preserveAspectRatio="xMidYMid meet">

<g transform="translate(0.000000,4417.000000) scale(0.100000,-0.100000)"
fill="#000000" stroke="none">
<path d="M16500 40821 c-101 -7 -123 -11 -170 -37 -29 -16 -69 -48 -89 -71
-33 -40 -39 -43 -84 -43 -53 0 -136 -35 -120 -51 18 -18 244 -31 403 -24 234
10 417 47 468 96 30 27 29 72 -2 93 -55 36 -207 50 -406 37z"/>
<path d="M14640 40711 c-359 -42 -405 -49 -661 -91 -735 -123 -1493 -346
-2133 -629 -359 -160 -467 -219 -681 -375 -119 -87 -188 -122 -282 -146 -43
-11 -84 -28 -90 -37 -12 -16 -18 -73 -8 -73 2 0 276 101 607 224 883 328 855
321 1253 321 149 0 296 -4 328 -8 50 -7 57 -11 52 -27 -14 -44 24 -25 140 69
69 56 126 101 129 101 2 0 -3 -19 -11 -42 -40 -117 62 -192 143 -106 69 73
134 103 172 80 9 -6 10 -16 3 -34 -7 -19 -6 -31 4 -44 8 -11 15 -30 15 -44 0
-38 33 -85 73 -103 40 -19 133 -22 191 -6 34 9 55 6 172 -27 l134 -38 28 26
c46 44 111 70 182 74 64 4 64 4 34 -11 -30 -13 -74 -59 -74 -75 0 -4 33 -5 73
-2 82 5 117 -3 312 -73 120 -43 136 -46 206 -42 66 3 86 9 150 44 116 63 138
68 245 53 72 -10 100 -10 128 0 50 16 76 46 76 88 0 29 -11 44 -69 102 -80 79
-118 145 -127 224 l-7 56 -44 0 c-24 0 -54 5 -66 11 -27 14 -87 70 -87 81 0 4
15 14 33 22 44 18 87 71 87 105 0 24 -7 31 -45 45 -41 16 -45 21 -45 50 0 44
23 62 98 80 88 20 112 38 112 82 0 43 -31 76 -98 107 -80 37 -261 33 -652 -12z"/>
<path d="M18783 40706 c37 -28 206 -75 322 -91 66 -8 172 -23 235 -32 l115
-16 -40 -17 -40 -17 35 -35 c43 -43 91 -58 185 -58 139 0 240 -41 365 -150 90
-77 133 -93 175 -66 34 22 42 61 19 88 -11 11 -117 69 -236 129 -120 60 -218
112 -218 115 0 3 3 3 8 1 5 -4 864 -270 975 -303 11 -4 17 0 17 12 0 32 -41
83 -83 103 -23 11 -179 54 -347 96 -615 152 -984 216 -1435 249 -60 4 -67 3
-52 -8z"/>
<path d="M20616 40475 c26 -40 90 -71 203 -100 148 -37 187 -60 264 -154 121
-146 147 -158 664 -302 219 -61 425 -123 458 -139 34 -15 81 -46 105 -69 41
-39 43 -43 27 -58 -11 -12 -43 -18 -108 -23 -84 -6 -94 -9 -116 -34 -27 -32
-29 -56 -8 -100 21 -43 70 -69 189 -101 248 -66 409 -154 816 -444 102 -73
218 -149 259 -169 70 -35 79 -36 180 -37 114 -2 130 -6 199 -62 l42 -34 0 38
c0 21 -7 49 -17 62 l-16 24 39 -7 c21 -4 44 -8 49 -9 19 -3 4 87 -20 130 -38
64 -84 97 -350 253 -272 158 -305 181 -479 338 -65 59 -150 131 -189 161 -135
101 -726 366 -1242 556 -288 106 -911 305 -954 305 -7 0 -5 -10 5 -25z"/>
<path d="M12635 39448 c-175 -54 -195 -59 -259 -54 -37 3 -71 8 -75 11 -3 4
13 24 36 46 41 38 42 39 18 45 -13 3 -50 3 -82 -1 -32 -4 -110 -6 -175 -5
-115 2 -116 1 -195 -36 l-78 -38 -257 -6 c-254 -5 -257 -5 -282 -29 -14 -14
-26 -28 -26 -32 0 -4 30 -12 68 -19 104 -19 107 -24 30 -59 -37 -17 -76 -31
-87 -31 -21 0 -53 39 -65 78 -10 29 -25 25 -136 -42 -95 -57 -109 -76 -137
-192 -9 -38 -17 -70 -18 -72 -9 -12 -57 29 -83 71 -17 29 -36 58 -41 66 -7 11
-21 3 -67 -37 -33 -28 -95 -79 -138 -114 -44 -35 -81 -68 -83 -75 -3 -7 11
-18 29 -26 18 -8 39 -21 47 -30 18 -22 18 -22 122 19 54 21 104 34 123 32 47
-5 48 -53 1 -138 -19 -36 -53 -99 -75 -141 -43 -84 -65 -99 -143 -99 -38 0
-39 1 -32 28 13 45 18 202 6 202 -5 0 -31 -34 -56 -75 -44 -70 -95 -125 -116
-125 -19 0 -42 53 -52 120 -13 80 -20 85 -93 74 -30 -4 -60 -18 -87 -40 -23
-18 -68 -51 -99 -73 l-58 -39 73 -12 c39 -6 79 -12 87 -13 45 -7 4 -71 -89
-140 -31 -22 -86 -67 -123 -98 -62 -54 -108 -85 -108 -76 0 18 38 89 65 122
41 50 75 106 75 123 0 20 -29 14 -92 -20 -94 -50 -142 -98 -167 -167 -24 -65
-64 -121 -87 -121 -30 0 -65 -34 -110 -106 -58 -93 -84 -114 -139 -114 -39 0
-175 35 -175 45 0 8 156 53 208 60 32 4 56 13 59 21 3 8 -6 32 -21 54 -14 22
-26 44 -26 50 0 14 33 27 102 40 53 10 58 14 77 54 25 50 26 66 6 92 -19 25
-19 88 1 153 8 29 14 55 11 57 -12 12 -92 -65 -146 -140 -34 -47 -70 -90 -79
-95 -11 -7 -31 -2 -67 17 -44 23 -61 26 -135 24 -74 -2 -94 -6 -155 -36 -75
-37 -422 -293 -492 -363 -24 -23 -43 -52 -43 -63 0 -25 -2 -25 82 5 74 27 108
31 108 14 0 -6 -11 -29 -25 -52 l-24 -42 20 -33 c12 -17 27 -32 34 -32 13 0
46 23 114 82 24 21 52 38 62 38 22 0 59 -46 59 -73 0 -25 -33 -75 -66 -100
l-24 -18 0 31 c0 16 -2 30 -3 30 -2 0 -48 -25 -103 -55 -78 -43 -108 -55 -143
-55 l-45 0 29 30 29 30 -77 0 -77 0 -142 -87 c-150 -91 -349 -190 -531 -264
l-108 -44 -257 -260 c-319 -322 -603 -633 -933 -1020 -166 -195 -409 -496
-409 -508 0 -7 12 -98 26 -203 l27 -190 -61 -120 c-64 -122 -85 -190 -162
-514 -27 -115 -42 -156 -104 -275 -67 -131 -105 -229 -94 -241 3 -2 17 0 32 6
42 16 54 12 70 -18 17 -34 46 -179 46 -233 0 -21 4 -39 8 -39 5 0 769 374
1698 831 1244 613 1701 833 1734 837 25 3 57 14 72 25 21 16 95 29 390 68 200
27 375 49 390 49 15 0 44 -8 64 -17 l37 -18 25 35 c73 98 167 160 241 160 14
0 42 16 66 39 48 44 110 66 158 56 46 -10 104 -50 123 -86 l16 -31 42 41 41
41 23 -43 c43 -80 64 -96 147 -112 91 -17 149 -47 176 -92 20 -32 22 -33 93
-33 97 0 166 21 194 60 46 61 105 69 328 45 56 -7 74 -3 251 54 l190 61 156 0
c86 0 167 -4 181 -10 25 -9 27 -6 97 133 39 78 91 172 116 210 50 75 46 72
342 203 l134 59 84 102 85 103 14 92 c11 64 25 110 45 148 l31 55 -48 -55
c-66 -75 -210 -220 -193 -194 8 12 57 87 111 165 192 286 328 529 343 614 11
58 37 88 119 140 95 59 230 114 436 177 278 86 420 157 473 237 14 21 97 112
186 203 88 91 165 177 171 192 13 34 13 146 0 146 -5 0 -84 32 -176 71 -138
59 -174 70 -205 66 -73 -10 -131 -47 -239 -156 -114 -114 -110 -97 9 43 42 49
89 105 105 124 l30 35 -85 -7 c-106 -9 -221 -31 -307 -58 -130 -40 -256 -22
-350 50 -26 20 -78 48 -117 63 -67 25 -606 199 -619 199 -7 0 -97 -179 -121
-242 -24 -65 -78 -125 -123 -138 -20 -5 -79 -10 -130 -10 l-93 0 -48 -45 c-26
-25 -50 -45 -53 -45 -2 0 0 27 5 60 9 58 9 61 -33 150 -24 49 -47 90 -52 90
-5 0 -44 -18 -88 -40 -44 -22 -88 -40 -97 -40 -10 0 -32 17 -50 37 l-31 38
-143 -3 c-173 -3 -219 -19 -304 -108 l-54 -57 -141 -13 c-77 -8 -149 -18 -160
-24 -40 -21 -24 -61 60 -155 20 -22 46 -66 59 -99 l24 -58 -26 -54 c-30 -60
-33 -86 -14 -102 7 -6 66 -20 132 -31 127 -22 160 -37 184 -87 13 -25 12 -37
-3 -94 -28 -110 -75 -172 -225 -296 -73 -62 -133 -116 -132 -120 1 -15 119
-178 192 -266 38 -46 69 -90 69 -98 0 -9 -13 -21 -30 -27 -26 -10 -30 -16 -30
-47 0 -31 -9 -45 -71 -106 -53 -52 -79 -70 -99 -70 -72 0 -205 64 -230 110 -9
17 -5 20 32 30 116 30 123 37 68 65 -58 30 -119 37 -171 20 -55 -19 -69 -14
-69 20 0 45 -17 73 -49 80 -35 8 -38 18 -14 66 9 19 17 54 18 79 0 44 -1 45
-34 48 -28 3 -76 -17 -238 -100 l-204 -103 -152 -3 c-84 -2 -231 3 -328 11
-97 8 -193 12 -215 8 -76 -14 -133 -58 -195 -147 -16 -24 -34 -44 -38 -44 -13
0 -21 39 -21 105 0 73 -22 172 -43 192 -25 25 -60 8 -111 -52 -26 -30 -52 -55
-57 -55 -15 0 -10 62 11 146 62 241 175 423 322 519 40 26 89 58 108 71 57 38
131 119 175 191 41 69 60 84 131 102 54 14 140 73 239 163 l79 73 -43 -63
c-51 -75 -91 -158 -91 -189 0 -13 3 -23 6 -23 3 0 31 18 61 40 55 39 95 50
108 30 3 -5 19 -10 34 -10 34 0 60 27 140 147 70 106 81 111 216 111 128 1
204 38 162 79 -15 15 -31 17 -105 14 -215 -11 -284 -7 -347 19 -33 14 -60 29
-60 35 0 5 39 19 87 32 47 12 109 33 138 48 52 26 173 111 178 124 1 4 -16 13
-38 20 -22 6 -52 22 -67 35 -26 22 -26 24 -7 33 10 6 35 14 54 18 75 15 110
26 110 36 0 18 -68 39 -145 46 -42 3 -78 10 -81 14 -9 16 59 49 176 86 115 37
160 65 160 100 0 29 29 63 53 63 13 0 55 -16 96 -35 l73 -35 -7 -88 c-6 -72
-5 -90 8 -100 34 -28 156 56 222 154 48 69 79 88 131 78 49 -9 74 -36 74 -78
0 -37 -13 -55 -60 -83 -40 -23 -43 -37 -21 -82 11 -20 16 -43 12 -49 -4 -6
-32 -20 -64 -31 -31 -11 -75 -31 -99 -45 -28 -16 -77 -30 -143 -41 -94 -15
-145 -34 -145 -54 0 -13 58 -61 95 -78 29 -14 38 -13 121 13 82 25 95 33 164
99 41 39 83 77 92 84 34 26 91 31 223 19 135 -11 174 -24 243 -75 l34 -25 26
31 c24 27 39 33 155 56 141 28 190 45 224 77 46 43 33 48 -114 49 -114 1 -130
3 -93 11 25 5 91 20 147 34 56 13 116 24 133 24 24 0 170 -43 227 -66 31 -13
-200 198 -234 214 -31 14 -67 17 -192 17 -163 0 -176 4 -144 44 15 17 35 23
108 31 50 6 122 20 161 31 67 20 75 25 113 77 43 60 47 72 31 103 -9 17 -21
19 -93 18 -71 -1 -108 -9 -272 -61z m-3421 -1963 c-19 -14 -18 -14 4 -15 28 0
29 -28 2 -62 -20 -26 -76 -55 -86 -45 -20 19 57 137 89 137 6 0 2 -7 -9 -15z
m-1194 -253 c0 -21 -19 -45 -84 -107 -83 -80 -176 -153 -176 -139 0 15 117
162 177 222 64 65 83 71 83 24z m1140 -117 c-13 -14 -18 -25 -12 -25 19 0 14
-39 -8 -75 -22 -35 -50 -57 -88 -69 -21 -7 -22 -5 -16 21 11 49 54 113 96 143
50 37 59 38 28 5z m-720 -120 c0 -18 -34 -66 -58 -84 -16 -11 -68 -34 -115
-51 -105 -38 -217 -112 -402 -264 -77 -63 -167 -131 -200 -151 -57 -33 -60
-34 -63 -15 -6 37 37 88 114 136 86 54 107 77 129 145 9 27 22 50 28 51 7 0
42 2 79 2 60 1 77 6 180 58 62 32 154 84 203 117 87 58 105 67 105 56z m245
-383 c-8 -37 -57 -88 -92 -97 -14 -3 -27 -4 -30 -1 -9 9 26 62 68 104 47 46
65 43 54 -6z m75 -80 c0 -34 -75 -145 -138 -203 -94 -88 -105 -78 -45 42 58
116 183 226 183 161z m255 -516 c40 -17 46 -28 74 -131 12 -44 35 -124 52
-178 29 -95 30 -97 56 -91 l26 7 -34 -48 c-19 -26 -48 -64 -66 -84 -26 -30
-34 -34 -50 -25 -21 13 -22 50 -3 129 10 38 10 60 1 93 -15 52 -31 54 -78 7
-40 -40 -43 -41 -43 -17 0 9 -12 55 -25 101 -14 47 -25 109 -25 139 0 46 4 58
29 83 34 33 39 34 86 15z m-222 -78 c-4 -18 -8 -57 -8 -86 l0 -53 -50 7 c-77
10 -80 14 -44 65 31 44 87 98 102 99 5 0 5 -15 0 -32z m1609 10 c17 -27 -27
-111 -61 -116 -28 -4 -61 24 -61 52 1 57 95 106 122 64z m-1595 -408 c18 0 36
-6 39 -13 2 -7 -2 -42 -11 -78 -23 -101 -21 -109 19 -66 42 46 90 52 108 12
11 -24 8 -29 -43 -75 -30 -27 -62 -49 -71 -50 -26 0 -48 40 -48 89 0 79 -20
171 -41 181 -12 7 -16 16 -12 27 6 14 8 14 16 -5 8 -16 19 -22 44 -22z"/>
<path d="M11080 39388 c-239 -85 -324 -108 -407 -108 -77 0 -100 -11 -119 -55
-18 -45 -18 -48 6 -35 34 18 74 9 78 -17 3 -22 5 -22 31 -8 16 8 77 24 137 36
143 28 218 57 317 123 83 55 180 136 162 135 -5 -1 -98 -32 -205 -71z"/>
<path d="M10357 39242 c-22 -24 -21 -39 3 -52 17 -9 25 -6 45 14 14 14 25 32
25 41 0 22 -53 20 -73 -3z"/>
<path d="M10386 39104 c-22 -8 -47 -20 -55 -28 -9 -7 -26 -17 -37 -20 -27 -8
-74 -54 -74 -72 0 -20 23 -17 70 7 47 25 70 20 70 -16 0 -20 -10 -30 -50 -50
-43 -22 -50 -29 -50 -55 0 -48 26 -40 72 22 33 44 80 74 147 94 56 16 81 36
81 64 0 17 -4 18 -26 10 -36 -14 -37 -14 -30 25 l7 35 -43 -1 c-24 0 -61 -7
-82 -15z"/>
<path d="M9956 38988 c-21 -30 -20 -35 8 -53 19 -13 28 -13 50 -4 26 12 42 41
32 58 -4 5 0 12 6 14 7 3 -8 6 -34 6 -38 1 -50 -3 -62 -21z"/>
<path d="M24066 38927 c-21 -33 -29 -88 -16 -121 6 -17 29 -49 50 -73 72 -78
48 -130 -53 -118 -68 8 -96 -9 -82 -51 8 -22 24 -33 69 -51 100 -38 143 -93
191 -243 56 -173 101 -232 236 -310 171 -99 226 -137 292 -199 145 -137 234
-304 273 -510 20 -107 23 -113 95 -181 48 -45 59 -61 59 -87 0 -18 -4 -35 -10
-38 -13 -8 -12 -97 1 -155 25 -108 79 -180 226 -297 125 -99 157 -154 230
-392 56 -184 125 -303 239 -412 47 -44 68 -57 103 -63 24 -3 55 -13 70 -20 31
-17 107 -97 174 -184 31 -41 69 -76 108 -100 181 -112 191 -126 214 -300 17
-131 44 -196 91 -224 21 -12 48 -47 78 -101 61 -107 144 -222 317 -440 200
-251 216 -265 529 -441 195 -111 377 -270 495 -436 111 -155 142 -180 230
-180 49 0 129 -54 185 -122 90 -112 102 -122 219 -172 l113 -49 21 22 c20 19
22 31 19 113 -4 130 10 185 64 254 27 35 44 68 44 83 -1 14 -13 130 -29 256
l-28 230 -94 155 c-360 590 -863 1334 -1257 1859 -512 683 -924 1137 -1477
1627 -486 432 -1187 968 -1807 1382 -167 112 -168 112 -182 89z"/>
<path d="M9995 38823 c-112 -51 -153 -75 -164 -95 -13 -22 -13 -29 -2 -42 7
-9 25 -16 39 -16 39 0 291 119 309 146 20 31 13 68 -12 72 -11 1 -87 -28 -170
-65z"/>
<path d="M9574 38781 c-66 -44 -135 -93 -154 -111 l-35 -31 43 4 c23 3 81 24
127 47 47 22 112 46 145 52 69 12 79 27 56 82 -11 27 -21 36 -39 36 -14 0 -77
-35 -143 -79z"/>
<path d="M11398 38369 c-21 -12 -24 -59 -6 -77 7 -7 24 -12 38 -12 34 0 50 17
50 52 0 40 -43 60 -82 37z"/>
<path d="M11095 38331 c-74 -33 -134 -128 -92 -144 21 -8 98 30 135 66 37 35
65 81 55 91 -12 11 -58 6 -98 -13z"/>
<path d="M11680 37676 c-7 -9 -21 -16 -32 -16 -33 0 -86 -27 -102 -53 -13 -19
-14 -30 -7 -51 15 -39 49 -34 96 14 22 23 49 40 61 40 12 0 32 9 45 19 20 16
22 23 13 38 -14 23 -57 28 -74 9z"/>
<path d="M14189 37410 c-125 -21 -204 -100 -346 -341 l-51 -86 44 16 c40 15
49 14 111 -2 222 -58 234 -66 301 -194 39 -75 43 -79 94 -96 29 -10 70 -30 90
-43 21 -13 40 -24 42 -24 2 0 39 20 81 45 110 66 258 138 249 123 -11 -19 -79
-103 -146 -179 -43 -48 -58 -74 -58 -95 0 -30 70 -186 88 -198 20 -12 44 8
129 113 48 58 217 238 376 400 332 338 348 358 311 395 -26 27 -55 18 -116
-35 l-58 -50 0 74 c0 60 -4 79 -21 101 -11 14 -24 26 -29 26 -14 0 -60 -102
-60 -134 0 -48 -54 -131 -117 -180 -50 -40 -136 -76 -149 -64 -3 3 22 48 56
99 55 85 67 109 56 109 -2 0 -37 -16 -77 -35 -88 -42 -214 -75 -281 -75 l-50
0 31 -42 c18 -24 27 -44 21 -46 -6 -2 -33 2 -60 8 -43 10 -59 22 -110 78 -33
37 -60 70 -60 74 0 4 -38 4 -83 1 -46 -3 -106 -2 -133 2 l-49 7 74 19 c158 40
211 113 134 185 -41 38 -150 58 -234 44z"/>
<path d="M13876 31355 c-18 -14 -19 -19 -8 -80 7 -36 17 -76 22 -90 18 -46 70
-23 85 38 9 35 -19 111 -48 132 -26 18 -27 18 -51 0z"/>
<path d="M13633 31270 c-65 -39 -120 -143 -93 -175 20 -24 45 -17 95 27 44 39
105 120 105 140 0 11 -48 10 -71 -2 -21 -12 -26 -1 -7 18 17 17 8 15 -29 -8z"/>
<path d="M13841 30861 c-19 -12 -26 -177 -9 -211 34 -65 108 -17 108 69 0 106
-48 174 -99 142z"/>
<path d="M14021 30586 c-16 -55 -8 -84 25 -92 79 -20 116 84 44 121 -44 23
-55 19 -69 -29z"/>
<path d="M18795 30467 c-45 -45 -53 -81 -28 -115 30 -41 73 -37 95 8 30 59 19
140 -18 140 -9 0 -31 -15 -49 -33z"/>
<path d="M17475 30440 c-25 -22 -49 -40 -53 -40 -131 -6 -176 -19 -206 -62
-33 -47 -4 -118 48 -118 25 0 267 135 303 170 39 37 26 90 -23 90 -13 0 -44
-18 -69 -40z"/>
<path d="M18950 30254 c0 -35 28 -74 53 -74 34 0 50 57 23 79 -8 7 -28 16 -45
21 -30 8 -31 8 -31 -26z"/>
<path d="M16275 30265 c-125 -27 -235 -82 -333 -164 -44 -37 -52 -41 -76 -31
-40 15 -137 12 -185 -5 -56 -19 -111 -60 -144 -106 -15 -20 -27 -39 -27 -42 0
-2 22 -2 49 1 64 6 92 -2 132 -35 76 -65 113 -169 72 -206 -10 -8 -99 -48
-198 -87 -99 -40 -186 -76 -192 -82 -7 -6 -13 -24 -13 -40 0 -24 6 -32 37 -44
72 -31 149 -2 306 114 121 89 187 121 262 129 49 5 63 2 129 -31 82 -40 110
-44 144 -20 32 22 42 47 58 143 8 49 22 97 32 111 24 32 77 48 103 32 17 -11
19 -9 19 19 0 47 -47 89 -100 89 -42 0 -42 0 -28 23 8 12 30 30 49 40 59 31
117 7 146 -62 13 -31 15 -32 32 -17 23 21 82 41 166 55 128 22 185 65 185 141
0 33 -38 80 -65 80 -8 0 -42 -7 -75 -16 -56 -16 -63 -16 -164 5 -119 24 -231
26 -321 6z"/>
<path d="M19146 30108 c-9 -12 -16 -31 -16 -41 0 -24 44 -67 68 -67 41 0 69
69 40 98 -7 7 -25 12 -41 12 -16 0 -26 4 -22 10 13 20 -14 9 -29 -12z"/>
<path d="M14875 30046 c-58 -35 -154 -65 -246 -77 -120 -16 -324 1 -420 36
-193 71 -255 71 -322 4 l-39 -39 -20 25 c-19 24 -19 24 -38 5 -25 -25 -66 -25
-125 0 -71 30 -127 25 -292 -26 -379 -117 -552 -241 -749 -534 -50 -74 -99
-149 -108 -167 -19 -38 -21 -80 -3 -86 24 -8 98 22 159 66 72 51 113 98 218
247 80 114 179 224 222 246 57 30 95 7 64 -38 -41 -58 6 -116 90 -110 12 1 60
31 107 66 107 79 129 84 266 51 139 -34 184 -32 284 9 45 18 94 36 109 40 41
10 100 -16 165 -71 101 -88 121 -91 207 -33 60 41 72 45 100 34 23 -9 20 -22
-19 -115 -20 -45 -34 -84 -31 -86 7 -7 750 406 764 425 22 29 11 65 -23 74
-38 11 -160 2 -222 -17 -64 -20 -63 -20 -50 20 6 22 7 42 1 55 -9 19 -10 19
-49 -4z"/>
<path d="M19236 29874 c-14 -37 -6 -74 19 -86 21 -9 28 -8 45 7 25 23 25 50 0
75 -24 24 -56 26 -64 4z"/>
<path d="M7240 29715 c-25 -19 -182 -96 -350 -172 l-305 -138 -165 3 c-91 1
-194 -2 -230 -8 -36 -5 -130 -14 -209 -20 -79 -5 -146 -11 -148 -14 -2 -2 6
-24 18 -47 34 -68 94 -233 129 -359 29 -104 39 -124 97 -203 55 -74 71 -105
103 -204 l39 -118 -25 -32 c-14 -18 -31 -48 -39 -66 l-14 -34 81 -57 c96 -69
146 -86 249 -86 59 0 81 -4 97 -17 10 -10 48 -89 83 -175 58 -146 70 -166 152
-270 49 -62 116 -153 149 -203 50 -75 70 -97 126 -132 l67 -42 3 29 c5 42 -45
251 -66 280 -11 13 -33 28 -51 31 -30 6 -34 4 -43 -23 -11 -30 -11 -29 -62 69
-29 54 -73 129 -99 168 l-47 70 0 91 c0 84 -2 94 -29 131 -26 36 -114 103
-156 119 -9 4 -40 57 -69 119 -29 61 -73 141 -96 175 -60 88 -141 170 -168
170 -20 0 -22 5 -22 59 0 47 -15 103 -70 267 -38 114 -70 217 -70 229 0 58 88
72 195 31 90 -34 95 -46 110 -236 12 -147 16 -168 44 -225 37 -75 100 -135
163 -155 35 -12 79 -52 248 -223 l204 -209 21 -73 c12 -41 28 -81 35 -90 20
-24 89 -62 151 -84 131 -46 145 -56 195 -141 63 -105 117 -166 232 -257 132
-105 212 -190 293 -310 77 -115 78 -120 110 -328 l23 -150 69 -93 c75 -100 78
-103 176 -137 36 -13 102 -38 146 -57 92 -40 182 -59 420 -88 214 -27 339 -50
535 -101 315 -81 536 -72 932 38 l127 35 55 63 c30 34 85 83 123 109 l69 46
115 7 c64 3 127 3 141 0 13 -4 50 -29 82 -57 105 -92 251 -148 549 -210 l88
-19 107 24 c113 26 312 45 472 45 l95 1 110 89 110 88 3 -41 c2 -28 13 -52 34
-76 26 -30 37 -35 68 -32 30 2 47 -6 96 -43 71 -53 237 -136 272 -136 14 0 48
-7 76 -16 61 -20 126 -88 126 -133 0 -35 28 -131 38 -129 4 2 19 -10 34 -25
19 -18 38 -27 60 -27 18 0 49 -3 69 -6 33 -6 38 -3 58 30 26 41 58 53 92 35
13 -6 48 -11 79 -10 37 1 99 -11 190 -37 126 -35 135 -39 132 -61 -4 -27 36
-88 78 -119 40 -30 72 -28 138 11 102 59 215 106 275 112 55 6 59 5 108 -31
l50 -37 40 39 39 38 39 -38 39 -38 54 30 c43 25 128 114 128 134 0 3 -31 20
-70 37 l-70 33 56 66 c31 36 71 98 89 137 l32 71 74 31 c71 29 78 30 157 22
80 -8 86 -11 142 -56 32 -27 64 -58 71 -71 11 -20 98 -92 111 -92 2 0 2 15 0
33 -3 26 5 44 42 92 45 59 45 62 46 135 0 42 5 81 11 87 8 8 -12 15 -68 27
-43 10 -118 29 -167 43 -87 25 -92 25 -215 13 -180 -17 -232 -27 -257 -51 -19
-17 -21 -26 -13 -52 13 -46 13 -47 -33 -47 -49 -1 -56 -8 -162 -177 -67 -106
-92 -125 -193 -149 -66 -16 -73 -16 -96 -1 -23 15 -26 14 -61 -11 l-38 -26
-56 29 c-31 17 -73 46 -92 66 -31 32 -46 39 -120 53 -110 21 -386 146 -393
179 -3 12 -13 78 -22 147 -28 215 -44 310 -60 340 -23 44 -45 151 -55 262 -8
98 -9 100 -55 159 -84 106 -89 139 -21 139 l31 1 -43 39 c-56 51 -85 56 -153
30 -73 -29 -170 -25 -217 9 -26 18 -42 22 -70 18 -53 -7 -257 -102 -408 -189
-71 -42 -152 -87 -181 -102 -51 -25 -391 -131 -398 -124 -3 2 12 53 32 113 56
168 53 213 -25 386 -77 172 -81 193 -48 239 45 62 59 101 60 175 1 80 -16 132
-75 233 -35 60 -39 74 -39 134 0 59 5 77 40 144 47 91 50 128 16 201 -28 60
-101 143 -125 143 -9 0 -50 -34 -91 -76 -89 -89 -205 -179 -390 -300 -205
-133 -240 -161 -240 -189 0 -13 21 -79 46 -147 35 -93 47 -142 52 -201 5 -74
3 -82 -31 -155 -22 -46 -46 -124 -61 -195 -14 -66 -31 -126 -38 -134 -12 -15
-15 -15 -128 3 -30 5 -43 -1 -90 -36 -30 -23 -68 -49 -85 -57 -16 -9 -70 -45
-120 -81 -148 -107 -199 -121 -289 -81 -33 14 -68 20 -114 20 -130 0 -163 12
-253 95 -45 41 -138 116 -208 166 -69 50 -134 100 -144 112 -10 11 -64 89
-119 171 -56 83 -114 166 -129 185 -58 72 -78 217 -86 616 l-6 302 -41 -19
c-35 -16 -67 -19 -232 -19 -189 0 -192 0 -229 26 -84 57 -192 167 -312 319
-69 88 -157 197 -196 243 l-69 82 -52 0 c-29 0 -59 -6 -68 -12 -9 -7 -26 -45
-37 -85 -27 -92 -56 -120 -167 -167 -116 -49 -160 -48 -242 2 -91 54 -159 117
-186 170 -37 72 -101 152 -159 199 -48 39 -56 42 -112 42 -53 0 -65 -3 -105
-34z"/>
<path d="M19283 29703 c-7 -2 -13 -9 -13 -15 0 -7 4 -7 13 0 10 9 12 4 9 -23
-2 -19 -1 -47 3 -62 l7 -28 19 25 c41 54 15 125 -38 103z"/>
<path d="M12946 29421 c-25 -28 -12 -104 24 -145 23 -25 36 -31 70 -31 102 0
124 131 30 180 -41 21 -103 19 -124 -4z"/>
<path d="M19245 29408 c-14 -21 -14 -24 0 -34 8 -6 15 -18 15 -26 0 -9 6 -21
14 -27 12 -10 19 -8 35 8 26 26 27 63 3 84 -25 23 -48 21 -67 -5z"/>
<path d="M14865 29168 c-11 -6 -35 -24 -53 -41 -31 -30 -34 -31 -65 -18 -41
17 -108 25 -151 17 -81 -15 -153 -120 -127 -185 37 -88 192 -55 326 69 66 61
68 62 115 58 26 -3 55 -1 64 4 22 12 21 71 -2 91 -21 19 -77 22 -107 5z"/>
<path d="M19394 28966 c-17 -8 -108 -61 -202 -119 -94 -58 -190 -114 -214
-125 -58 -26 -71 -43 -102 -139 -38 -114 -54 -125 -218 -151 -37 -5 -97 -24
-133 -41 -47 -23 -107 -38 -213 -57 -159 -27 -214 -47 -314 -115 -57 -40 -70
-44 -134 -47 -83 -5 -120 10 -155 60 -32 47 -48 58 -88 58 -43 0 -123 -21
-172 -45 -54 -26 -103 -15 -119 28 -6 17 -16 42 -20 53 -13 34 -55 38 -116 13
-54 -21 -54 -21 -54 -66 0 -42 2 -45 43 -63 32 -15 55 -18 100 -13 93 10 80
-14 -86 -155 -149 -127 -217 -199 -217 -229 0 -9 40 -56 89 -103 81 -76 92
-91 106 -143 20 -68 14 -126 -15 -175 -16 -26 -26 -32 -55 -32 -45 0 -109 56
-140 123 -20 43 -22 58 -17 164 4 103 3 116 -11 110 -8 -3 -27 0 -42 6 -19 9
-24 17 -20 33 4 19 -29 65 -39 53 -1 -2 -24 -56 -50 -120 l-46 -116 31 -67
c17 -37 34 -90 38 -119 l6 -52 42 -6 c28 -3 67 -22 113 -53 99 -68 143 -114
169 -179 14 -34 29 -57 38 -57 9 0 41 15 72 34 70 43 290 100 444 115 120 12
135 9 274 -55 42 -19 81 -34 87 -34 6 0 47 36 91 80 62 63 92 85 142 105 180
72 251 3 337 -325 40 -152 50 -166 166 -242 69 -46 110 -96 110 -135 0 -18 16
-33 68 -67 112 -72 162 -140 162 -219 0 -26 -7 -61 -15 -77 -11 -22 -12 -35
-4 -59 6 -17 8 -38 5 -46 -8 -21 -40 -19 -60 4 -14 16 -23 18 -43 10 -13 -5
-37 -9 -54 -9 -23 0 -31 -6 -43 -33 -13 -32 -68 -87 -87 -87 -5 0 -28 -17 -52
-39 -23 -21 -70 -51 -105 -66 -54 -24 -63 -31 -57 -49 25 -90 17 -133 -37
-192 l-40 -43 21 -34 c29 -48 47 -61 128 -92 111 -43 134 -67 215 -228 l70
-141 28 -238 c17 -146 25 -250 20 -271 -17 -76 -81 -130 -153 -129 -194 2
-247 13 -289 59 -27 29 -48 88 -48 133 0 22 -2 40 -4 40 -2 0 -33 -20 -68 -44
-36 -24 -83 -47 -104 -51 -22 -4 -68 -28 -103 -53 -36 -25 -99 -61 -140 -79
-68 -29 -86 -33 -168 -33 l-93 0 -107 56 c-224 118 -210 112 -343 129 -69 9
-168 22 -220 30 -117 19 -130 19 -189 1 -25 -8 -129 -22 -231 -31 -166 -14
-193 -14 -261 -1 -42 8 -88 20 -102 27 -19 9 -49 8 -135 -5 -128 -18 -190 -20
-227 -6 -23 9 -30 7 -46 -14 -18 -23 -99 -56 -176 -71 l-33 -7 0 -97 c0 -104
-10 -131 -71 -179 -24 -20 -24 -21 -24 -200 l0 -179 35 -69 c33 -65 39 -71
108 -106 65 -34 81 -38 148 -38 41 0 74 -2 74 -5 0 -27 -124 -229 -176 -288
-25 -27 -34 -46 -34 -71 0 -57 16 -82 84 -131 62 -44 65 -48 76 -103 6 -31 13
-64 16 -74 7 -23 111 -46 289 -63 256 -23 306 -48 776 -386 80 -58 246 -169
370 -247 124 -78 317 -202 430 -275 l204 -134 37 -69 c25 -47 42 -68 53 -66
44 8 170 -45 340 -142 96 -56 206 -92 335 -112 107 -16 432 -18 700 -5 l165 8
175 -52 c175 -52 176 -53 325 -151 83 -55 172 -110 197 -124 26 -13 53 -35 60
-48 14 -28 16 -85 5 -157 l-8 -51 38 -21 c115 -65 147 -167 123 -391 l-12
-113 60 -92 c189 -292 241 -470 277 -939 27 -359 26 -354 165 -640 75 -155
129 -278 141 -325 35 -140 20 -331 -42 -530 l-32 -102 33 -63 c19 -35 60 -108
92 -163 60 -103 68 -136 43 -169 -30 -40 -17 -87 62 -219 29 -47 39 -57 62
-57 56 0 87 18 100 60 6 21 20 48 30 61 l18 23 12 -54 c6 -29 16 -96 21 -147
12 -111 18 -125 71 -159 63 -39 65 -57 34 -220 -32 -160 -31 -225 4 -297 33
-68 95 -141 149 -176 70 -45 306 -141 346 -141 18 0 86 14 149 30 141 36 164
37 296 5 l104 -26 126 42 c69 23 130 45 135 49 14 13 -192 108 -284 132 -47
12 -89 25 -94 30 -11 9 9 146 29 194 7 16 40 52 73 80 52 42 66 62 102 139 23
50 68 138 101 197 32 58 59 109 59 112 0 3 -63 6 -139 6 -89 0 -142 4 -146 11
-4 6 14 42 39 80 25 38 46 73 46 77 0 21 83 134 157 214 91 98 103 128 103
250 -1 102 -13 153 -47 201 -65 90 -52 111 120 197 130 67 203 126 239 194 24
47 26 141 3 205 -8 24 -14 45 -13 46 2 1 45 24 97 50 137 71 345 212 434 295
134 125 234 275 282 424 l27 84 -41 79 c-62 119 -71 127 -146 121 -34 -3 -83
-15 -109 -26 -39 -18 -48 -19 -52 -7 -8 19 36 166 50 170 6 1 65 8 131 14 147
13 209 30 300 83 146 86 322 233 354 297 25 50 73 197 121 376 22 83 48 174
56 204 14 49 30 69 144 186 70 72 137 149 148 171 19 39 26 62 81 294 35 148
58 211 105 282 36 54 66 147 66 204 0 17 -9 66 -21 110 -42 158 -41 152 -24
304 29 266 36 293 100 368 19 22 75 70 124 106 106 79 146 129 241 301 99 180
79 154 495 626 l249 283 13 175 c16 217 32 306 74 407 30 71 33 89 33 174 0
69 -6 117 -23 175 -22 77 -23 91 -19 415 l3 335 -78 171 c-91 200 -101 247
-87 390 5 54 10 104 10 111 0 6 22 16 48 23 l49 11 46 157 c37 122 47 173 47
227 0 116 20 244 52 330 72 195 116 447 125 710 6 201 -2 282 -44 407 -46 138
-175 308 -234 308 -71 0 -196 -33 -250 -66 -106 -66 -163 -67 -306 -8 -94 39
-264 84 -402 108 -152 26 -150 26 -239 -56 -42 -39 -103 -88 -134 -109 -63
-40 -261 -116 -376 -144 -80 -19 -109 -44 -144 -122 -10 -24 -25 -43 -32 -43
-7 0 -33 17 -57 38 -63 56 -77 61 -193 74 -95 11 -121 9 -312 -16 -115 -15
-226 -29 -247 -32 -42 -5 -98 -32 -137 -65 -24 -21 -25 -25 -22 -129 l3 -107
-40 -49 c-21 -27 -67 -71 -101 -99 -34 -27 -102 -83 -151 -122 -49 -40 -91
-73 -94 -73 -18 0 85 126 152 187 109 98 113 109 84 247 -12 60 -25 115 -29
121 -5 9 -70 -14 -217 -75 l-210 -87 4 -110 3 -109 -67 -110 c-36 -60 -73
-116 -82 -124 -20 -19 -17 -14 45 90 l50 85 -5 120 -5 120 45 100 c39 88 47
118 66 249 12 82 20 150 19 152 -4 3 -238 75 -333 103 -116 33 -179 100 -230
242 -14 41 -30 81 -35 89 -13 20 -136 28 -478 29 -475 2 -530 -11 -1142 -265
-158 -66 -188 -65 -306 4 -158 94 -284 152 -357 164 -151 25 -325 -40 -499
-185 -38 -32 -72 -56 -76 -53 -3 4 2 55 11 114 21 130 21 155 2 191 -36 71
-171 64 -280 -14 -53 -37 -98 -45 -138 -24 -11 7 -61 17 -110 23 l-88 11 77
50 c70 46 164 135 164 156 0 12 -20 11 -56 -5z"/>
<path d="M102367 27142 c-76 -709 -102 -1299 -94 -2180 7 -824 34 -1296 118
-2027 341 -2994 1383 -5338 3024 -6806 1496 -1338 3496 -1999 5915 -1955 1307
23 2468 240 3570 666 1514 586 2828 1577 3708 2796 53 74 98 132 100 129 3 -3
61 -2655 62 -2853 l0 -62 1883 2 1882 3 0 5805 0 5805 -4532 3 -4533 2 0
-1805 0 -1805 2126 0 2126 0 -7 -27 c-3 -15 -38 -96 -76 -181 -361 -797 -915
-1642 -1502 -2290 -167 -185 -509 -519 -682 -666 -790 -675 -1676 -1120 -2605
-1310 -346 -70 -601 -97 -1001 -103 -349 -6 -499 1 -893 42 -1620 170 -3039
637 -4271 1407 -739 462 -1417 1055 -1980 1733 -1196 1437 -1955 3300 -2285
5610 -18 121 -33 221 -34 222 -2 2 -10 -68 -19 -155z"/>
<path d="M39110 10930 c-1245 -67 -2112 -279 -2714 -665 -397 -254 -685 -559
-856 -908 -148 -302 -190 -538 -190 -1062 0 -532 39 -747 190 -1050 142 -284
382 -546 765 -836 222 -168 432 -299 732 -458 503 -266 993 -477 1683 -726
847 -305 1732 -686 2300 -990 311 -166 441 -256 571 -393 128 -135 199 -271
240 -457 20 -91 22 -135 26 -489 5 -411 -1 -510 -38 -651 -54 -208 -181 -393
-360 -526 -252 -186 -683 -314 -1214 -360 -177 -15 -716 -15 -900 0 -452 38
-797 117 -1046 242 -253 126 -464 350 -558 593 -77 199 -91 320 -91 787 l0
339 -1191 0 -1191 0 5 -452 c4 -401 7 -469 26 -591 41 -262 103 -461 211 -682
78 -160 142 -262 245 -390 552 -689 1514 -1055 3075 -1169 670 -50 1534 -46
2215 9 1096 89 1909 315 2452 681 575 387 889 884 980 1546 15 115 18 207 18
663 0 551 -4 627 -46 840 -44 222 -143 455 -266 628 -75 105 -290 322 -421
426 -445 351 -910 561 -2847 1291 -1082 408 -1361 516 -1735 675 -729 310
-1115 577 -1250 866 -66 142 -73 191 -78 544 -4 344 1 413 44 537 103 305 417
573 819 701 310 99 613 137 1097 137 611 0 1015 -69 1343 -231 276 -136 493
-378 585 -650 51 -150 53 -172 59 -609 l6 -415 1178 -3 1177 -2 0 299 c0 164
-5 356 -10 427 -27 345 -117 695 -250 971 -314 654 -970 1102 -1995 1361 -361
92 -752 150 -1300 193 -174 13 -1285 20 -1495 9z"/>
<path d="M49715 10934 c-27 -2 -126 -8 -220 -14 -1528 -98 -2670 -570 -3263
-1347 -220 -289 -356 -621 -419 -1018 -17 -103 -18 -299 -18 -3110 0 -2865 1
-3005 18 -3115 83 -517 284 -910 645 -1261 551 -537 1400 -870 2557 -1003 697
-81 1570 -86 2305 -15 1210 117 2129 460 2671 999 366 364 566 810 619 1380 8
79 10 1024 8 3055 -3 2797 -4 2945 -22 3050 -88 528 -288 920 -655 1285 -630
627 -1575 980 -2926 1096 -137 12 -337 17 -720 19 -291 1 -552 1 -580 -1z
m995 -1378 c532 -72 893 -225 1138 -480 136 -142 214 -282 271 -485 l26 -96 3
-3005 c2 -2156 0 -3027 -8 -3083 -41 -288 -171 -519 -383 -680 -300 -228 -716
-347 -1321 -378 -458 -23 -935 25 -1257 127 -503 159 -773 430 -872 874 l-21
95 -3 2925 c-3 1954 0 2963 6 3040 19 204 73 369 173 520 233 354 698 575
1348 639 148 15 763 6 900 -13z"/>
<path d="M91750 10934 c-407 -26 -581 -42 -845 -80 -1526 -216 -2574 -870
-2929 -1827 -69 -184 -115 -399 -136 -627 -14 -158 -14 -5751 0 -5910 40 -444
177 -819 421 -1154 97 -132 324 -360 469 -468 620 -466 1497 -742 2640 -832
1211 -96 2428 -1 3280 256 1137 342 1792 959 1963 1853 54 280 52 140 52 3275
0 2761 -1 2922 -18 3050 -73 542 -284 976 -656 1348 -412 412 -1004 722 -1726
905 -381 97 -753 155 -1265 198 -118 10 -1132 20 -1250 13z m865 -1365 c743
-64 1246 -322 1460 -749 47 -95 77 -179 102 -290 16 -69 17 -296 21 -3015 2
-2068 0 -2972 -8 -3047 -50 -494 -323 -802 -871 -982 -525 -173 -1397 -191
-1986 -42 -444 113 -754 337 -899 650 -44 96 -79 220 -93 331 -9 68 -11 836
-9 3085 l3 2995 26 96 c60 215 148 368 293 507 264 253 678 412 1201 461 131
12 620 12 760 0z"/>
<path d="M112915 10934 c-33 -2 -141 -8 -240 -14 -761 -44 -1429 -164 -1933
-346 -429 -156 -782 -370 -1074 -652 -365 -353 -556 -747 -598 -1232 -5 -63
-10 -241 -10 -395 0 -309 10 -456 40 -618 39 -204 123 -415 233 -585 202 -311
629 -684 1127 -984 129 -77 467 -253 690 -359 393 -186 743 -330 1205 -497
825 -298 1481 -572 2110 -883 470 -231 654 -347 815 -508 146 -147 217 -277
261 -476 20 -91 22 -135 26 -500 4 -324 2 -419 -11 -500 -66 -441 -322 -712
-826 -879 -345 -114 -695 -159 -1225 -159 -552 1 -936 50 -1277 164 -435 146
-725 435 -823 822 -35 140 -45 280 -45 649 l0 338 -1191 0 -1191 0 5 -452 c5
-466 8 -516 53 -738 51 -255 175 -560 311 -765 525 -793 1519 -1206 3193
-1329 670 -50 1534 -46 2215 9 809 66 1494 214 1990 430 564 245 996 628 1225
1084 116 231 175 427 215 711 22 155 32 905 16 1157 -35 517 -169 851 -471
1167 -255 266 -574 482 -1025 693 -437 205 -855 371 -2304 918 -1421 535
-1779 686 -2171 913 -161 93 -299 192 -393 281 -131 125 -193 224 -244 388
l-27 88 -1 365 c0 324 2 373 19 435 42 161 161 348 293 462 301 260 667 387
1255 434 203 16 779 7 958 -15 297 -37 568 -107 750 -194 289 -138 511 -379
606 -653 55 -163 58 -185 64 -624 l5 -410 1178 -3 1177 -2 0 302 c0 306 -9
461 -36 643 -53 360 -187 732 -352 980 -349 524 -952 896 -1816 1120 -394 102
-778 161 -1351 206 -130 10 -1267 21 -1400 13z"/>
<path d="M56050 5475 l0 -5375 3565 0 3565 0 0 660 0 660 -2300 0 -2300 0 0
4715 0 4715 -1265 0 -1265 0 0 -5375z"/>
<path d="M63770 6677 c0 -2902 3 -4207 11 -4283 43 -442 206 -852 466 -1174
84 -103 269 -281 383 -366 780 -585 2060 -878 3720 -851 396 7 584 17 900 48
911 90 1639 303 2170 634 309 193 575 445 753 715 172 261 283 552 343 900 18
100 19 301 21 4328 l3 4222 -1230 0 -1230 0 -3 -4202 -3 -4203 -21 -95 c-100
-445 -368 -714 -873 -874 -473 -150 -1273 -176 -1840 -60 -388 80 -693 241
-869 460 -108 133 -180 293 -218 480 -17 85 -18 301 -21 4292 l-2 4202 -1230
0 -1230 0 0 -4173z"/>
<path d="M73860 10195 l0 -655 1558 -2 1557 -3 3 -4717 2 -4718 1245 0 1245 0
2 4718 3 4717 1583 3 1582 2 0 655 0 655 -4390 0 -4390 0 0 -655z"/>
<path d="M83907 10843 c-4 -3 -7 -2422 -7 -5375 l0 -5368 1265 0 1265 0 0
5375 0 5375 -1258 0 c-692 0 -1262 -3 -1265 -7z"/>
<path d="M98100 5475 l0 -5375 1105 0 1105 0 0 3268 c0 1938 -4 3399 -10 3592
-12 388 -35 882 -55 1185 -21 309 -26 277 41 273 l56 -3 2129 -4155 2128
-4155 1476 -3 1475 -2 0 5375 0 5375 -1111 0 -1110 0 4 -2972 c3 -1923 8
-3070 16 -3248 23 -590 43 -1035 55 -1260 7 -129 11 -238 9 -243 -7 -12 -100
-8 -110 6 -6 6 -885 1746 -1954 3864 l-1944 3853 -1652 0 -1653 0 0 -5375z"/>
<path d="M122920 5475 l0 -5376 2618 4 c1867 3 2656 7 2752 15 756 65 1226
148 1675 297 379 125 734 306 979 499 295 231 513 525 651 876 46 118 107 356
131 515 18 115 19 254 19 3225 0 2946 -1 3111 -18 3219 -40 255 -125 503 -239
703 -456 798 -1494 1253 -3128 1368 -364 25 -806 30 -3062 30 l-2378 0 0
-5375z m4780 4041 c598 -63 953 -203 1175 -463 219 -256 343 -592 375 -1013
14 -184 13 -4922 0 -5120 -28 -403 -129 -720 -309 -977 -201 -286 -517 -435
-1081 -510 -109 -14 -275 -17 -1297 -20 l-1173 -4 0 4066 0 4067 1078 -5 c904
-4 1102 -7 1232 -21z"/>
<path d="M133300 5475 l0 -5375 3560 0 3560 0 0 660 0 660 -2300 0 -2300 0 0
4715 0 4715 -1260 0 -1260 0 0 -5375z"/>
<path d="M15980 1773 c-3730 -27 -6888 -291 -7340 -613 -37 -26 -63 -74 -55
-99 91 -289 2202 -539 5395 -641 952 -30 1332 -35 2825 -35 1495 0 1856 5
2830 35 2756 87 4758 291 5263 536 92 45 132 82 132 126 0 57 -137 135 -338
193 -931 267 -3532 455 -6847 495 -734 9 -1018 9 -1865 3z"/>
</g>
</svg>
